<svg xmlns="http://www.w3.org/2000/svg" viewBox="0 0 58.01 49"><defs><style>.cls-1{fill:#333;}.cls-2{fill:#ec6265;}</style></defs><title>LogoAsset 5</title><g id="Layer_2" data-name="Layer 2"><g id="Layer_1-2" data-name="Layer 1"><path class="cls-1" d="M57.86,13.93A16.45,16.45,0,0,0,51.13,2.42,13.14,13.14,0,0,0,43.49,0C37.38,0,31.85,4,29,6.44,26.07,3.87,20.64,0,14.59,0A13.4,13.4,0,0,0,6.9,2.41,16.27,16.27,0,0,0,.16,13.82C-.64,20,1.61,26.51,6.51,32.19A67.67,67.67,0,0,0,28,48.79a2.51,2.51,0,0,0,2,0A67.7,67.7,0,0,0,51.51,32.19C56.38,26.54,58.63,20.06,57.86,13.93Zm-10.15,15A65,65,0,0,1,29,43.69a64.64,64.64,0,0,1-18.7-14.78c-4-4.59-5.79-9.71-5.17-14.44a11.25,11.25,0,0,1,4.6-7.92A8.35,8.35,0,0,1,14.59,5c5.85,0,11.53,5.51,12.61,6.61a2.51,2.51,0,0,0,1.8.76h0a2.51,2.51,0,0,0,1.8-.76c.26-.27,6.48-6.6,12.69-6.6a8.1,8.1,0,0,1,4.77,1.51,11.42,11.42,0,0,1,4.61,8C53.47,19.26,51.63,24.36,47.71,28.91Z"/><path class="cls-2" d="M37.3,22.15H23.06V18.3a1.68,1.68,0,1,0-3.35,0V28.69a1.68,1.68,0,1,0,3.35,0V25.5H35.62v3.19a1.68,1.68,0,1,0,3.35,0V23.82A1.68,1.68,0,0,0,37.3,22.15Z"/><path class="cls-2" d="M25.67,20h2.6a.71.71,0,0,0,.71-.71v-.59a.71.71,0,0,0-.71-.71h-2.6a.71.71,0,0,0-.71.71v.59A.71.71,0,0,0,25.67,20Z"/></g></g></svg>